<svg width="205" height="66" viewBox="0 0 205 66" fill="none" xmlns="http://www.w3.org/2000/svg">
<path d="M0.125 65.8771H91.784C92.0084 65.8771 92.1581 65.6499 92.0681 65.4469C89.9532 60.7065 71.0605 18.3172 71.0757 17.0676C71.0823 16.5271 77.3508 13.6084 84.8324 10.3413C87.8965 9.0035 91.1641 7.60731 94.2885 6.29199C102.229 2.94956 109.245 0.130123 109.645 0.123052C109.827 0.119669 110.764 1.94477 112.157 4.89949C114.667 10.2254 118.652 19.2217 122.345 27.8033C122.798 28.8564 123.246 29.9033 123.687 30.9358C128.002 41.0433 131.581 49.8306 131.364 50.2272C130.843 51.1779 96.9867 65.8774 95.1994 65.8768C94.4731 65.8762 74.0234 19.1258 74.7355 18.2237C75.0065 17.88 79.7872 15.6807 85.6465 13.1106C88.8363 11.7104 92.3463 10.2011 95.6214 8.82087C102.133 6.07769 107.718 3.84674 108.026 4.01154C108.124 4.0638 108.538 4.86567 109.183 6.22066C111.422 10.9291 116.445 22.3188 120.665 32.1579C121.113 33.2005 121.551 34.2262 121.976 35.2239C125.166 42.7162 127.608 48.6751 127.497 48.9571C127.069 50.0421 100.455 61.3955 99.948 61.3017C99.4159 61.2036 95.7359 53.6139 95.9622 53.1847C96.0104 53.0931 97.0785 52.6128 98.7316 51.9096C98.7316 51.9096 97.7762 51.7412 96.9089 51.0589C96.0415 50.3766 95.477 48.8482 96.0646 49.3722C96.6521 49.8961 97.5891 50.4563 98.1552 50.2573C98.6992 50.0658 98.7017 49.2071 99.3008 48.3462C99.8354 47.5784 100.661 47.1999 101.39 47.0517C102.108 46.906 100.635 47.6162 99.8494 49.4911C99.4221 50.5101 99.6453 51.2864 99.3851 51.6335C104.273 49.5723 113.097 46.0196 117.042 44.3682C117.042 44.3682 117.542 40.8444 117.724 39.9841C117.761 39.8064 117.791 39.6732 117.809 39.6074C117.925 39.1841 118.147 38.6921 118.147 38.6921C118.147 38.6921 119.224 35.8982 120.666 32.1582C121.189 30.802 121.761 29.321 122.346 27.8033C122.954 26.2254 123.578 24.6085 124.178 23.0515C125.703 19.0969 127.079 15.53 127.678 13.9755C127.861 13.4995 127.972 13.2124 127.993 13.1607C128.199 12.6297 130.087 12.0133 130.408 12.6906C130.464 12.8099 130.441 12.9642 130.357 13.1512C129.963 14.0265 128.232 15.6269 127.043 17.7942C125.599 20.4251 125.809 23.2412 125.482 23.2596C125.285 23.2704 124.648 23.2729 124.178 23.0518C123.865 22.9045 123.627 22.6589 123.641 22.2512C123.676 21.2292 125.068 16.0979 126.677 14.7091C126.988 14.4407 127.33 14.1929 127.678 13.9758C128.79 13.2812 129.959 12.8997 130.356 13.1515C130.478 13.2284 130.527 13.3643 130.482 13.5675C130.332 14.2328 126.598 23.6387 123.688 30.9364C123.066 32.4977 122.481 33.9627 121.977 35.2249C121.014 37.6372 120.345 39.3092 120.274 39.5001C119.989 40.258 120.016 40.2768 119.843 40.5338C119.749 40.6753 119.208 41.5589 118.724 42.3346C118.954 42.9379 119.099 43.3932 119.065 43.4716C119.048 43.5107 118.45 43.7748 117.458 44.1933C117.458 44.1933 118.327 42.9711 118.724 42.3349C118.456 41.6315 118.073 40.7263 117.724 39.985C117.365 39.224 117.043 38.6359 116.918 38.6146C116.581 38.5575 94.1802 48.3575 93.8121 48.316C93.4975 48.2807 91.5655 43.7333 91.6539 43.432C91.6738 43.3631 92.7434 42.8884 94.4121 42.1834C94.4121 42.1834 93.4639 42.0361 92.5965 41.3538C91.7298 40.6716 91.1647 39.1432 91.7523 39.6671C92.3398 40.191 93.2768 40.7506 93.8429 40.5523C94.3875 40.3607 94.3894 39.5017 94.9884 38.6411C95.5231 37.8734 96.3487 37.4943 97.0782 37.3467C97.7964 37.2009 96.3235 37.9112 95.5371 39.7855C95.1098 40.805 95.3304 41.5595 95.0703 41.906C101.499 39.2093 114.758 33.8868 114.767 33.7432C114.784 33.48 112.872 28.9188 112.619 28.8681C112.403 28.8256 90.0182 38.7136 89.506 38.5615C89.1475 38.4554 87.1138 34.1226 87.364 33.6894C87.4561 33.5295 88.6374 32.9801 90.4222 32.2176C90.4222 32.2176 89.4204 32.0291 88.5531 31.3465C87.6858 30.6643 87.1213 29.1359 87.7088 29.6598C88.2964 30.184 89.2334 30.7439 89.7988 30.545C90.3435 30.354 90.3459 29.4947 90.9447 28.6338C91.4793 27.8667 92.305 27.4876 93.0344 27.3394C93.7523 27.1942 92.4422 27.8731 91.6561 29.748C91.2288 30.767 91.24 31.6337 90.9799 31.9805C97.4563 29.2435 110.361 24.2466 110.48 23.9936C110.657 23.6145 108.532 19.0855 108.242 19.0219C107.854 18.9373 85.743 28.8945 85.2326 28.8118C84.8125 28.7445 80.8229 21.5366 80.4591 19.9747C80.0153 18.0709 81.5159 16.8346 83.183 15.5297C84.3394 14.6252 85.3782 13.993 85.6484 13.1112C85.7672 12.7213 85.7361 12.2826 85.499 11.7504C85.26 11.2139 85.026 10.7477 84.8336 10.3419C84.5993 9.84872 84.4241 9.44256 84.3706 9.10251C84.257 8.3852 86.3252 7.78134 85.6263 6.04817C84.9276 4.31469 85.8948 3.23857 86.8583 2.83119C87.8212 2.4238 88.9564 2.57568 89.774 3.95496C90.8613 5.79021 92.6846 4.67566 93.0942 4.81278C93.4754 4.941 93.8846 5.55162 94.2898 6.2926C94.7538 7.13997 95.2134 8.1586 95.6233 8.82149C95.9024 9.27315 96.1589 9.56032 96.3779 9.51666C97.1995 9.35217 100.351 8.36706 102.82 8.28742C103.272 8.27266 103.642 8.3812 103.914 8.56137C104.469 8.92633 104.616 9.58522 104.228 10.0941C103.368 11.224 83.6617 19.777 82.4075 19.8988C81.0501 20.0304 80.709 18.7651 82.9916 17.8049C84.4602 17.1876 95.5978 12.2519 103.914 8.56137C105.885 7.68664 107.697 6.88201 109.184 6.22158C110.441 5.66384 111.466 5.2088 112.159 4.90041C112.209 4.87858 112.256 4.85737 112.303 4.83677C112.864 4.58741 113.473 4.45859 114.088 4.45859H204.877" stroke="#231F20" stroke-width="0.5" stroke-linecap="round" stroke-linejoin="round"/>
</svg>
