<svg width="17" height="13" viewBox="0 0 17 13" fill="none" xmlns="http://www.w3.org/2000/svg">
<path d="M1.41797 6.50065H2.83464M7.08464 6.50065H9.91797M14.168 6.50065H15.5846M9.91797 2.25065L9.91797 10.7507C9.91797 11.5331 10.5522 12.1673 11.3346 12.1673H12.7513C13.5337 12.1673 14.168 11.5331 14.168 10.7507V2.25065C14.168 1.46825 13.5337 0.833985 12.7513 0.833984L11.3346 0.833984C10.5522 0.833984 9.91797 1.46825 9.91797 2.25065ZM2.83464 4.37565L2.83464 8.62565C2.83464 9.40805 3.4689 10.0423 4.2513 10.0423H5.66797C6.45037 10.0423 7.08464 9.40805 7.08464 8.62565V4.37565C7.08464 3.59325 6.45037 2.95898 5.66797 2.95898H4.2513C3.4689 2.95898 2.83464 3.59325 2.83464 4.37565Z" stroke="#6750A4" stroke-linecap="round"/>
</svg>
