<svg width="20" height="14" viewBox="0 0 20 14" fill="none" xmlns="http://www.w3.org/2000/svg">
<path d="M17.6099 5.21026C18.5762 6.22699 18.5762 7.77171 17.6099 8.78843C15.9801 10.5032 13.1809 12.8327 10.0013 12.8327C6.82171 12.8327 4.02255 10.5032 2.39272 8.78843C1.42638 7.77171 1.42638 6.22699 2.39272 5.21026C4.02255 3.49546 6.82171 1.16602 10.0013 1.16602C13.1809 1.16602 15.9801 3.49546 17.6099 5.21026Z" stroke="#939094" stroke-width="1.5"/>
<path d="M12.5013 6.99935C12.5013 8.38006 11.382 9.49935 10.0013 9.49935C8.62059 9.49935 7.5013 8.38006 7.5013 6.99935C7.5013 5.61864 8.62059 4.49935 10.0013 4.49935C11.382 4.49935 12.5013 5.61864 12.5013 6.99935Z" stroke="#939094" stroke-width="1.5"/>
</svg>
