<svg width="20" height="16" viewBox="0 0 20 16" fill="none" xmlns="http://www.w3.org/2000/svg">
<path d="M3.33464 1.33398L16.668 14.6673M11.668 9.86407C11.2257 10.2599 10.6416 10.5007 10.0013 10.5007C8.62059 10.5007 7.5013 9.38136 7.5013 8.00065C7.5013 7.36036 7.74201 6.77628 8.13788 6.33398M16.3411 11.0071C16.8172 10.5925 17.2432 10.1756 17.6099 9.78974C18.5762 8.77301 18.5762 7.22829 17.6099 6.21157C15.9801 4.49676 13.1809 2.16732 10.0013 2.16732C9.25849 2.16732 8.53644 2.29445 7.84522 2.51118M5.41797 3.67014C4.2025 4.44602 3.166 5.39797 2.39272 6.21157C1.42638 7.22829 1.42638 8.77301 2.39272 9.78973C4.02255 11.5045 6.82171 13.834 10.0013 13.834C11.558 13.834 13.0236 13.2756 14.3053 12.5043" stroke="#939094" stroke-width="1.5" stroke-linecap="round"/>
</svg>
