<svg width="10.75rem" height="80" viewBox="0 0 188 72" fill="none" xmlns="http://www.w3.org/2000/svg">
<path d="M187 62.6148C171.849 62.807 147.185 62.4675 128.067 62.7709C128.029 62.7745 124.971 61.6956 124.293 61.2476C124.147 61.024 128.323 63.31 128.067 62.7276C127.773 62.0584 126.202 59.1383 126.034 58.934C124.059 56.5481 121.303 53.0239 119.82 51.0896C118.093 52.7156 116.322 54.2208 115.554 55.0774C119.074 57.6748 119.864 58.3841 123.614 60.8932C124.198 60.8799 125.555 59.4566 125.887 58.8854C125.456 58.3102 113.652 43.5181 113.527 43.5811C112.99 43.848 116.072 46.1966 112.06 48.7759C110.348 49.8766 103.466 45.8221 102.52 44.8772C102.205 44.5617 96.5523 38.5396 96.3492 38.2012C93.9657 38.996 90.1997 34.3121 89.0749 38.8126C89.1536 42.3392 112.471 45.1297 110.565 52.7505C107.134 66.4758 83.7651 47.4806 77.5285 50.8684C76.4676 51.4436 84.1746 53.3847 85.7453 53.7777C87.2722 54.1594 103.858 58.9569 104.061 59.7689C106.838 70.875 86.0162 63.363 81.6377 63.363C81.2933 63.363 78.0423 62.98 78.0423 63.021C78.0423 63.6359 96.405 64.8899 95.8443 67.1284C95.4469 68.7208 84.1954 70.5523 82.4931 70.5523C66.0089 70.5523 68.5486 67.6286 55.4475 59.7689C54.0912 58.9557 50.0928 58.0714 50.6548 56.345C52.8079 49.7305 52.6345 35.0242 58.1863 29.4717C58.7399 28.9182 64.8039 32.672 66.5926 28.1174C68.6923 22.7717 74.4252 21.8834 75.9883 22.1118C77.5518 22.339 83.6323 22.2832 85.2319 22.2832C86.4052 22.2832 87.6712 22.2129 88.9734 22.1467C93.9693 21.8918 99.5107 21.6935 102.52 25.7059C104.353 28.1511 111.513 42.7173 113.305 43.1657C114.174 43.3832 112.488 39.3625 113.343 35.0844C113.439 34.6059 118.276 26.6202 115.358 22.7966C113.474 20.326 107.511 20.3645 102.124 19.7664C97.3824 19.2398 94.7605 18.7019 91.2763 18.6405C88.2051 18.5863 84.077 21.313 83.5199 20.5712C80.8485 17.0097 67.6326 4.26583 62.7443 1.59938C62.7443 0.432528 68.3664 3.75085 68.7987 3.9672C71.4299 5.28296 89.4487 20.0731 82.6649 21.7682C76.7811 23.2397 59.3693 6.56582 61.4389 2.42665C61.9443 1.41594 59.006 0.580241 58.3577 1.22849C55.3271 4.25901 75.4183 17.2336 77.1873 19.8861C77.5919 20.4938 70.7865 23.2409 69.8259 23.4801C67.3589 24.0975 66.5264 28.7171 64.8445 29.4894C62.717 30.4668 59.8598 27.7281 57.589 29.9992C45.9896 41.5982 61.6902 61.0521 36.8259 60.3931C20.0708 60.2606 8.39029 60.2305 1 60.1394" stroke="black" stroke-linecap="round" stroke-linejoin="round"/>
</svg>
