<svg width="38" height="38" viewBox="0 0 38 38" fill="none" xmlns="http://www.w3.org/2000/svg">
<circle cx="19" cy="19" r="19" fill="#EADDFF"/>
<path fill-rule="evenodd" clip-rule="evenodd" d="M19.7826 16.8696C22.2319 16.8696 24.2174 14.884 24.2174 12.4348C24.2174 9.98552 22.2319 8 19.7826 8C17.3334 8 15.3478 9.98552 15.3478 12.4348C15.3478 14.884 17.3334 16.8696 19.7826 16.8696ZM19.7817 28.6957C24.6802 28.6957 28.6512 26.7102 28.6512 24.261C28.6512 21.8117 24.6802 19.8262 19.7817 19.8262C14.8832 19.8262 10.9121 21.8117 10.9121 24.261C10.9121 26.7102 14.8832 28.6957 19.7817 28.6957ZM11.4772 19.8545C7.82642 20.0796 5 21.6359 5 23.5222C5 25.0772 6.92098 26.408 9.64119 26.9535C9.03333 26.1304 8.69565 25.2195 8.69565 24.2613C8.69565 22.571 9.74634 21.028 11.4772 19.8545ZM30.8695 24.2613C30.8695 25.2195 30.5318 26.1304 29.9239 26.9535C32.6441 26.408 34.5651 25.0772 34.5651 23.5222C34.5651 21.6359 31.7387 20.0796 28.0879 19.8545C29.8188 21.028 30.8695 22.571 30.8695 24.2613ZM25.2793 16.1823C26.0085 15.115 26.4349 13.8245 26.4349 12.4343C26.4349 11.973 26.3879 11.5227 26.2985 11.0878C26.5752 11.0022 26.8692 10.9561 27.174 10.9561C28.8068 10.9561 30.1305 12.2797 30.1305 13.9126C30.1305 15.5454 28.8068 16.8691 27.174 16.8691C26.4531 16.8691 25.7924 16.6111 25.2793 16.1823ZM12.3921 10.9561C12.6969 10.9561 12.9909 11.0022 13.2675 11.0878C13.1782 11.5227 13.1312 11.973 13.1312 12.4343C13.1312 13.8245 13.5576 15.115 14.2868 16.1823C13.7737 16.6111 13.113 16.8691 12.3921 16.8691C10.7592 16.8691 9.43555 15.5454 9.43555 13.9126C9.43555 12.2797 10.7592 10.9561 12.3921 10.9561Z" fill="#6750A4"/>
</svg>
