<svg width="35" height="35" viewBox="0 0 35 35" fill="none" xmlns="http://www.w3.org/2000/svg">
<path opacity="0.4" d="M22.2856 9.57509V15.056H12.3203V9.57509C12.3203 8.47435 13.2126 7.58203 14.3134 7.58203H20.2925C21.3933 7.58203 22.2856 8.47435 22.2856 9.57509Z" fill="#1B1B1B"/>
<path fill-rule="evenodd" clip-rule="evenodd" d="M17.3003 27.5108C21.7033 27.5108 25.2726 23.9416 25.2726 19.5386C25.2726 15.1357 21.7033 11.5664 17.3003 11.5664C12.8974 11.5664 9.32812 15.1357 9.32812 19.5386C9.32812 23.9416 12.8974 27.5108 17.3003 27.5108ZM18.0828 16.0576C17.762 15.3818 16.8352 15.3818 16.5145 16.0576L15.9601 17.2254C15.8327 17.4938 15.5865 17.6797 15.3017 17.7228L14.0622 17.91C13.3449 18.0184 13.0585 18.9348 13.5775 19.4608L14.4745 20.3698C14.6806 20.5787 14.7746 20.8796 14.726 21.1746L14.5142 22.4581C14.3917 23.2008 15.1415 23.7672 15.783 23.4165L16.8917 22.8105C17.1464 22.6713 17.4508 22.6713 17.7055 22.8105L18.8142 23.4165C19.4557 23.7672 20.2055 23.2008 20.083 22.4581L19.8713 21.1746C19.8226 20.8796 19.9166 20.5787 20.1227 20.3698L21.0197 19.4608C21.5387 18.9348 21.2523 18.0184 20.5351 17.91L19.2955 17.7228C19.0107 17.6797 18.7645 17.4938 18.6371 17.2254L18.0828 16.0576Z" fill="#1B1B1B"/>
</svg>
