<svg width="35" height="35" viewBox="0 0 35 35" fill="none" xmlns="http://www.w3.org/2000/svg">
<path d="M24.8037 11.375H22.9717C22.5732 11.375 22.1943 11.5664 21.96 11.8945L15.8193 20.4102L13.0381 16.5508C12.8037 16.2266 12.4287 16.0313 12.0264 16.0313H10.1943C9.94044 16.0313 9.792 16.3203 9.94044 16.5273L14.8076 23.2773C14.9226 23.4378 15.0742 23.5686 15.2498 23.6588C15.4254 23.749 15.62 23.7961 15.8174 23.7961C16.0148 23.7961 16.2094 23.749 16.385 23.6588C16.5606 23.5686 16.7122 23.4378 16.8272 23.2773L25.0537 11.8711C25.2061 11.6641 25.0576 11.375 24.8037 11.375V11.375Z" fill="#5055AD"/>
<path d="M17.5 0C7.83594 0 0 7.83594 0 17.5C0 27.1641 7.83594 35 17.5 35C27.1641 35 35 27.1641 35 17.5C35 7.83594 27.1641 0 17.5 0ZM17.5 32.0312C9.47656 32.0312 2.96875 25.5234 2.96875 17.5C2.96875 9.47656 9.47656 2.96875 17.5 2.96875C25.5234 2.96875 32.0312 9.47656 32.0312 17.5C32.0312 25.5234 25.5234 32.0312 17.5 32.0312Z" fill="#5055AD"/>
</svg>
