<svg width="27" height="27" viewBox="0 0 27 27" fill="none" xmlns="http://www.w3.org/2000/svg">
<path d="M13.4912 26.9824C6.05086 26.9824 0 20.9316 0 13.4912C0 6.05086 6.05086 0 13.4912 0C20.9316 0 26.9824 6.05086 26.9824 13.4912C26.9824 20.9316 20.9316 26.9824 13.4912 26.9824ZM13.4912 2.06715C7.1871 2.0603 2.0603 7.1871 2.0603 13.4912C2.0603 19.7953 7.1871 24.9221 13.4912 24.9221C19.7953 24.9221 24.9221 19.7953 24.9221 13.4912C24.9221 7.1871 19.7885 2.0603 13.4912 2.0603V2.06715Z" fill="white"/>
<path d="M13.9103 7.2446L8.34043 10.4372C7.66269 10.8257 7.4287 11.6892 7.81778 12.3659L7.8212 12.3718C8.21029 13.0485 9.07512 13.2821 9.75286 12.8936L15.3227 9.70101C16.0004 9.31253 16.2344 8.44905 15.8453 7.77238L15.8419 7.76643C15.4528 7.08975 14.588 6.85612 13.9103 7.2446Z" fill="white"/>
<path d="M17.9181 14.2153L12.3482 17.4079C11.6705 17.7964 11.4365 18.6599 11.8256 19.3366L11.829 19.3425C12.2181 20.0192 13.0829 20.2528 13.7607 19.8643L19.3305 16.6717C20.0082 16.2832 20.2422 15.4198 19.8531 14.7431L19.8497 14.7371C19.4606 14.0605 18.5958 13.8268 17.9181 14.2153Z" fill="white"/>
<path d="M12.8424 12.3479L8.43418 14.8747C7.75644 15.2632 7.52245 16.1267 7.91153 16.8034L7.91495 16.8093C8.30404 17.486 9.16887 17.7196 9.84661 17.3311L14.2548 14.8044C14.9325 14.4159 15.1665 13.5524 14.7775 12.8757L14.774 12.8698C14.385 12.1931 13.5201 11.9595 12.8424 12.3479Z" fill="#F4D316"/>
</svg>
