<svg width="135" height="49" viewBox="0 0 135 49" fill="none" xmlns="http://www.w3.org/2000/svg">
<path d="M111.051 8.34075L105.774 5.75634C105.354 5.55032 105.45 4.92408 105.914 4.85487L131.74 1.00191C131.913 0.976038 131.978 1.22075 131.815 1.28414L112.079 8.94671C111.895 9.01803 111.775 9.19492 111.775 9.39209V16.287C111.775 16.6946 112.252 16.9148 112.561 16.6503L116.924 12.9223C117.087 12.7831 117.323 12.7696 117.5 12.8894L123.661 17.0449C123.885 17.1964 124.191 17.1306 124.333 16.8999L133.977 1.28461C134.057 1.15596 133.914 1.00564 133.781 1.07882L119.578 8.9311C117.037 10.3355 115.028 12.5361 113.855 15.1941C112.899 17.3623 111.801 19.4044 110.948 20.7149C106.894 26.9469 97.1357 31.6976 80.4567 25.9995C61.8767 19.6521 48.8834 34.0154 51.294 38.9148C53.7047 43.8142 62.6372 38.3408 55.2097 33.4414C47.0316 28.0467 37.3373 31.9584 28.3234 39.3511C16.8476 48.7626 1 47.8872 1 47.8872" stroke="black" stroke-linecap="round" stroke-linejoin="round"/>
</svg>
