<svg width="21" height="21" viewBox="0 0 21 21" fill="none" xmlns="http://www.w3.org/2000/svg">
<path d="M7.48594 13.3199C7.48594 13.3199 8.5798 14.2922 10.4029 14.2922C12.226 14.2922 13.3199 13.3199 13.3199 13.3199M16.2368 0.679688H4.56897C2.42098 0.679688 0.679688 2.42098 0.679688 4.56897V16.2368C0.679688 18.3848 2.42098 20.1261 4.56897 20.1261H16.2368C18.3848 20.1261 20.1261 18.3848 20.1261 16.2368V4.56897C20.1261 2.42098 18.3848 0.679688 16.2368 0.679688ZM15.2645 8.45826C15.2645 8.99526 14.8292 9.43058 14.2922 9.43058C13.7552 9.43058 13.3199 8.99526 13.3199 8.45826C13.3199 7.92126 13.7552 7.48594 14.2922 7.48594C14.8292 7.48594 15.2645 7.92126 15.2645 8.45826ZM7.48594 8.45826C7.48594 8.99526 7.05061 9.43058 6.51362 9.43058C5.97662 9.43058 5.54129 8.99526 5.54129 8.45826C5.54129 7.92126 5.97662 7.48594 6.51362 7.48594C7.05061 7.48594 7.48594 7.92126 7.48594 8.45826Z" stroke="#6750A4" stroke-linecap="round" stroke-linejoin="round"/>
</svg>
