<svg width="33" height="33" viewBox="0 0 33 33" fill="none" xmlns="http://www.w3.org/2000/svg">
<circle cx="16.5" cy="16.5" r="16.5" fill="#F6EDFF"/>
<path d="M13.4859 19.3199C13.4859 19.3199 14.5798 20.2922 16.4029 20.2922C18.226 20.2922 19.3199 19.3199 19.3199 19.3199M22.2368 6.67969H10.569C8.42098 6.67969 6.67969 8.42098 6.67969 10.569V22.2368C6.67969 24.3848 8.42098 26.1261 10.569 26.1261H22.2368C24.3848 26.1261 26.1261 24.3848 26.1261 22.2368V10.569C26.1261 8.42098 24.3848 6.67969 22.2368 6.67969ZM21.2645 14.4583C21.2645 14.9953 20.8292 15.4306 20.2922 15.4306C19.7552 15.4306 19.3199 14.9953 19.3199 14.4583C19.3199 13.9213 19.7552 13.4859 20.2922 13.4859C20.8292 13.4859 21.2645 13.9213 21.2645 14.4583ZM13.4859 14.4583C13.4859 14.9953 13.0506 15.4306 12.5136 15.4306C11.9766 15.4306 11.5413 14.9953 11.5413 14.4583C11.5413 13.9213 11.9766 13.4859 12.5136 13.4859C13.0506 13.4859 13.4859 13.9213 13.4859 14.4583Z" stroke="#6750A4" stroke-linecap="round" stroke-linejoin="round"/>
</svg>
