<svg width="100%" height="100%" viewBox="0 0 14 20" fill="none" xmlns="http://www.w3.org/2000/svg">
<path d="M2 17.5827C1.58579 17.5827 1.25 17.9185 1.25 18.3327C1.25 18.7469 1.58579 19.0827 2 19.0827V17.5827ZM12 19.0827C12.4142 19.0827 12.75 18.7469 12.75 18.3327C12.75 17.9185 12.4142 17.5827 12 17.5827V19.0827ZM12.5 7.91602C12.5 9.2952 11.613 11.1065 10.3657 12.6257C9.7546 13.37 9.08961 14.0032 8.46659 14.4434C7.82024 14.9002 7.31331 15.0827 7 15.0827V16.5827C7.78044 16.5827 8.60164 16.1847 9.33223 15.6685C10.0862 15.1357 10.847 14.4034 11.525 13.5776C12.8558 11.9567 14 9.80963 14 7.91602H12.5ZM7 15.0827C6.70184 15.0827 6.20166 14.8941 5.55088 14.4055C4.92658 13.9368 4.25948 13.264 3.64585 12.4781C2.39363 10.8742 1.5 8.97853 1.5 7.59194H0C0 9.47815 1.13762 11.7029 2.46352 13.4012C3.13896 14.2663 3.89764 15.04 4.65029 15.6051C5.37646 16.1503 6.20441 16.5827 7 16.5827V15.0827ZM1.5 7.59194C1.5 4.6466 4.1229 2.41602 7 2.41602V0.916016C3.43377 0.916016 0 3.68543 0 7.59194H1.5ZM7 2.41602C9.84948 2.41602 12.5 4.62105 12.5 7.91602H14C14 3.71098 10.5938 0.916016 7 0.916016V2.41602ZM8.75 7.49935C8.75 8.46585 7.9665 9.24935 7 9.24935V10.7493C8.79493 10.7493 10.25 9.29427 10.25 7.49935H8.75ZM7 9.24935C6.0335 9.24935 5.25 8.46585 5.25 7.49935H3.75C3.75 9.29427 5.20507 10.7493 7 10.7493V9.24935ZM5.25 7.49935C5.25 6.53285 6.0335 5.74935 7 5.74935V4.24935C5.20507 4.24935 3.75 5.70442 3.75 7.49935H5.25ZM7 5.74935C7.9665 5.74935 8.75 6.53285 8.75 7.49935H10.25C10.25 5.70442 8.79493 4.24935 7 4.24935V5.74935ZM2 19.0827H12V17.5827H2V19.0827Z" fill="#958DA5"/>
</svg>
