<svg width="26" height="26" viewBox="0 0 38 38" fill="none" xmlns="http://www.w3.org/2000/svg">
<circle cx="19" cy="19" r="19" fill="none"/>
<path fill-rule="evenodd" clip-rule="evenodd" d="M21.1511 19.0075L33.7737 7.2112C34.1716 6.8394 34.1716 6.23659 33.7737 5.86479C33.3759 5.49299 32.7309 5.49299 32.333 5.86479L28.3277 9.60792C25.9495 7.6946 22.8543 6.53799 19.4701 6.53799C11.9682 6.53799 5.88672 12.2213 5.88672 19.2321C5.88672 26.2428 11.9682 31.9261 19.4701 31.9261C26.9719 31.9261 33.0534 26.2428 33.0534 19.2321C33.0534 16.7211 32.2733 14.3805 30.9272 12.4102L27.6913 15.4343C28.2979 16.5789 28.6388 17.8683 28.6388 19.2321C28.6388 23.9643 24.5338 27.8006 19.4701 27.8006C14.4063 27.8006 10.3013 23.9643 10.3013 19.2321C10.3013 14.4998 14.4063 10.6636 19.4701 10.6636C21.6349 10.6636 23.6245 11.3647 25.1931 12.5373L23.7408 13.8945C22.5503 13.0612 21.0719 12.5677 19.4701 12.5677C15.5316 12.5677 12.3388 15.5514 12.3388 19.2321C12.3388 22.9127 15.5316 25.8965 19.4701 25.8965C23.4085 25.8965 26.6013 22.9127 26.6013 19.2321C26.6013 18.4041 26.4397 17.6113 26.1444 16.8799L23.1788 19.6513C22.9572 21.3816 21.3812 22.7229 19.4701 22.7229C17.407 22.7229 15.7346 21.16 15.7346 19.2321C15.7346 17.3041 17.407 15.7412 19.4701 15.7412C20.1314 15.7412 20.7526 15.9018 21.2914 16.1836L19.7104 17.6611C19.6319 17.6507 19.5516 17.6453 19.4701 17.6453C18.5323 17.6453 17.7721 18.3557 17.7721 19.2321C17.7721 20.1084 18.5323 20.8188 19.4701 20.8188C20.4078 20.8188 21.168 20.1084 21.168 19.2321C21.168 19.1558 21.1622 19.0809 21.1511 19.0075Z" fill="#FFFFFF"/>
</svg>
