<svg width="26" height="26" viewBox="0 0 38 38" fill="#000000" xmlns="http://www.w3.org/2000/svg">
<circle cx="19" cy="19" r="19" fill="#FFFFFF"/>
<g opacity="0.7">
<path fill-rule="evenodd" clip-rule="evenodd" d="M14.0065 9.22917C14.0065 7.89448 15.0885 6.8125 16.4232 6.8125H21.2565C22.5912 6.8125 23.6732 7.89448 23.6732 9.22917C23.6732 10.5639 22.5912 11.6458 21.2565 11.6458H16.4232C15.0885 11.6458 14.0065 10.5639 14.0065 9.22917ZM12.194 9.22926H11.9648C9.7557 9.22926 7.96484 11.0201 7.96484 13.2293V26.9793C7.96484 29.1884 9.7557 30.9793 11.9648 30.9793H25.7148C27.924 30.9793 29.7148 29.1884 29.7148 26.9793V13.2293C29.7148 11.0201 27.924 9.22926 25.7148 9.22926H25.4857C25.4857 11.565 23.5922 13.4584 21.2565 13.4584H16.4232C14.0875 13.4584 12.194 11.565 12.194 9.22926ZM14.0065 15.5729C13.506 15.5729 13.1003 15.9787 13.1003 16.4792C13.1003 16.9797 13.506 17.3854 14.0065 17.3854H23.6732C24.1737 17.3854 24.5794 16.9797 24.5794 16.4792C24.5794 15.9787 24.1737 15.5729 23.6732 15.5729H14.0065ZM13.1003 21.3125C13.1003 20.812 13.506 20.4062 14.0065 20.4062H23.6732C24.1737 20.4062 24.5794 20.812 24.5794 21.3125C24.5794 21.813 24.1737 22.2188 23.6732 22.2188H14.0065C13.506 22.2188 13.1003 21.813 13.1003 21.3125ZM14.0065 25.2396C13.506 25.2396 13.1003 25.6453 13.1003 26.1458C13.1003 26.6463 13.506 27.0521 14.0065 27.0521H18.8398C19.3404 27.0521 19.7461 26.6463 19.7461 26.1458C19.7461 25.6453 19.3404 25.2396 18.8398 25.2396H14.0065Z" fill="#000000"/>
</g>
</svg>
