<svg width="40" height="40" viewBox="0 0 40 40" fill="none" xmlns="http://www.w3.org/2000/svg">
<circle cx="20" cy="20" r="20" fill="#F6EDFF"/>
<path d="M16.3457 23.4171C16.3457 23.4171 17.6716 24.5957 19.8814 24.5957C22.0912 24.5957 23.4171 23.4171 23.4171 23.4171M26.9528 8.0957H12.81C10.2064 8.0957 8.0957 10.2064 8.0957 12.81V26.9528C8.0957 29.5565 10.2064 31.6671 12.81 31.6671H26.9528C29.5565 31.6671 31.6671 29.5565 31.6671 26.9528V12.81C31.6671 10.2064 29.5565 8.0957 26.9528 8.0957ZM25.7743 17.5243C25.7743 18.1752 25.2466 18.7028 24.5957 18.7028C23.9448 18.7028 23.4171 18.1752 23.4171 17.5243C23.4171 16.8734 23.9448 16.3457 24.5957 16.3457C25.2466 16.3457 25.7743 16.8734 25.7743 17.5243ZM16.3457 17.5243C16.3457 18.1752 15.818 18.7028 15.1671 18.7028C14.5162 18.7028 13.9886 18.1752 13.9886 17.5243C13.9886 16.8734 14.5162 16.3457 15.1671 16.3457C15.818 16.3457 16.3457 16.8734 16.3457 17.5243Z" stroke="#6750A4" stroke-linecap="round" stroke-linejoin="round"/>
</svg>
