<svg width="22" height="26" viewBox="0 0 22 26" fill="none" xmlns="http://www.w3.org/2000/svg">
<path d="M9.91831 3.74839C6.64186 4.24304 4.02153 6.94908 3.62754 10.427L3.22519 13.9789C3.12521 14.8615 2.76751 15.692 2.19938 16.3607C0.993736 17.7798 1.97225 20.0006 3.80313 20.0006H18.1995C20.0304 20.0006 21.0089 17.7798 19.8032 16.3607C19.2351 15.692 18.8774 14.8615 18.7774 13.9789L18.5115 11.6318M14.5013 22.334C13.9918 23.6934 12.6172 24.6673 11.0013 24.6673C9.38543 24.6673 8.01077 23.6934 7.5013 22.334M20.3346 4.83398C20.3346 6.76698 18.7676 8.33398 16.8346 8.33398C14.9016 8.33398 13.3346 6.76698 13.3346 4.83398C13.3346 2.90099 14.9016 1.33398 16.8346 1.33398C18.7676 1.33398 20.3346 2.90099 20.3346 4.83398Z" stroke="#FFFFFF" stroke-width="1.5" stroke-linecap="round"/>
</svg>
