<svg width="28" height="28" viewBox="0 0 28 28" fill="none" xmlns="http://www.w3.org/2000/svg">
<path d="M14.9912 4.66602H13.0114C11.918 4.66602 11.0316 5.50175 11.0316 6.53268C11.0316 7.71243 9.76932 8.46247 8.73315 7.89843L8.6279 7.84114C7.68098 7.32567 6.47015 7.63157 5.92344 8.52439L4.93354 10.141C4.38683 11.0338 4.71127 12.1754 5.6582 12.6909C6.69486 13.2552 6.69486 14.7435 5.65819 15.3078C4.71127 15.8233 4.38683 16.9649 4.93353 17.8577L5.92344 19.4743C6.47015 20.3671 7.68098 20.673 8.6279 20.1576L8.73315 20.1003C9.76932 19.5362 11.0316 20.2863 11.0316 21.466C11.0316 22.4969 11.918 23.3327 13.0114 23.3327H14.9912C16.0846 23.3327 16.971 22.4969 16.971 21.466C16.971 20.2863 18.2333 19.5362 19.2695 20.1003L19.3747 20.1575C20.3216 20.673 21.5324 20.3671 22.0792 19.4743L23.0691 17.8577C23.6158 16.9649 23.2913 15.8233 22.3444 15.3078C21.3077 14.7435 21.3077 13.2552 22.3444 12.6909C23.2913 12.1754 23.6158 11.0338 23.0691 10.141L22.0792 8.5244C21.5324 7.63159 20.3216 7.32569 19.3747 7.84115L19.2695 7.89844C18.2333 8.46249 16.971 7.71243 16.971 6.53268C16.971 5.50175 16.0846 4.66602 14.9912 4.66602Z" stroke="#FFFFFF" stroke-width="1.5" stroke-linejoin="round"/>
<circle cx="14" cy="14" r="3.5" stroke="#FFFFFF" stroke-width="1.5"/>
</svg>
