<svg width="28" height="24" viewBox="0 0 28 24" fill="none" xmlns="http://www.w3.org/2000/svg">
<path d="M14 18.25C9.85786 18.25 6.5 14.8921 6.5 10.75M14 18.25C18.1421 18.25 21.5 14.8921 21.5 10.75M14 18.25V23.25M6.5 10.75L6.5 3.25C6.5 1.86929 7.61929 0.75 9 0.75L19 0.75C20.3807 0.75 21.5 1.86929 21.5 3.25L21.5 10.75M6.5 10.75L6.5 5.75C6.5 4.36929 5.38071 3.25 4 3.25C2.61929 3.25 1.5 4.36929 1.5 5.75C1.5 8.51142 3.73858 10.75 6.5 10.75ZM21.5 10.75L21.5 5.75C21.5 4.36929 22.6193 3.25 24 3.25C25.3807 3.25 26.5 4.36929 26.5 5.75C26.5 8.51142 24.2614 10.75 21.5 10.75ZM14 23.25H10.25M14 23.25H17.75" stroke="#6750A4" stroke-width="1.5" stroke-linecap="round"/>
</svg>
