<svg width="17" height="17" viewBox="0 0 17 17" fill="none" xmlns="http://www.w3.org/2000/svg">
<path d="M1.91797 1.41602C1.91797 1.13987 1.69411 0.916016 1.41797 0.916016C1.14183 0.916016 0.917969 1.13987 0.917969 1.41602H1.91797ZM15.5846 16.0827C15.8608 16.0827 16.0846 15.8588 16.0846 15.5827C16.0846 15.3065 15.8608 15.0827 15.5846 15.0827V16.0827ZM10.9805 5.87435C10.7043 5.87435 10.4805 6.09821 10.4805 6.37435C10.4805 6.65049 10.7043 6.87435 10.9805 6.87435V5.87435ZM12.9471 6.76591L12.4999 6.98951V6.98951L12.9471 6.76591ZM13.0124 8.01462C13.1359 8.26161 13.4363 8.36172 13.6832 8.23823C13.9302 8.11474 14.0303 7.8144 13.9068 7.56741L13.0124 8.01462ZM12.8153 7.00264L13.0894 6.58449L12.2531 6.03623L11.979 6.45439L12.8153 7.00264ZM10.4594 9.68429L10.0413 9.41016L10.4594 9.68429ZM9.26108 9.66274L8.83334 9.92166L9.26108 9.66274ZM7.90945 7.42981L7.48171 7.68873L7.90945 7.42981ZM6.6812 7.45824L6.24194 7.21939L6.6812 7.45824ZM4.52037 10.3855C4.38846 10.6281 4.47819 10.9317 4.72079 11.0636C4.96339 11.1955 5.26699 11.1058 5.3989 10.8632L4.52037 10.3855ZM0.917969 1.41602V12.7494H1.91797V1.41602H0.917969ZM4.2513 16.0827H15.5846V15.0827H4.2513V16.0827ZM0.917969 12.7494C0.917969 14.5903 2.41035 16.0827 4.2513 16.0827V15.0827C2.96264 15.0827 1.91797 14.038 1.91797 12.7494H0.917969ZM10.9805 6.87435H12.3135V5.87435H10.9805V6.87435ZM12.4999 6.98951L13.0124 8.01462L13.9068 7.56741L13.3943 6.5423L12.4999 6.98951ZM12.3135 6.87435C12.3924 6.87435 12.4646 6.91893 12.4999 6.98951L13.3943 6.5423C13.1896 6.13294 12.7712 5.87435 12.3135 5.87435V6.87435ZM11.979 6.45439L10.0413 9.41016L10.8776 9.95842L12.8153 7.00264L11.979 6.45439ZM9.68882 9.40382L8.33719 7.17089L7.48171 7.68873L8.83334 9.92166L9.68882 9.40382ZM6.24194 7.21939L4.52037 10.3855L5.3989 10.8632L7.12046 7.69709L6.24194 7.21939ZM8.33719 7.17089C7.85417 6.37292 6.68752 6.39992 6.24194 7.21939L7.12046 7.69709C7.19729 7.5558 7.39843 7.55115 7.48171 7.68873L8.33719 7.17089ZM10.0413 9.41016C9.95724 9.53835 9.7682 9.53496 9.68882 9.40382L8.83334 9.92166C9.29373 10.6822 10.3902 10.7019 10.8776 9.95842L10.0413 9.41016Z" fill="#6750A4"/>
</svg>
