<svg width="42" height="42" viewBox="0 0 42 42" fill="none" xmlns="http://www.w3.org/2000/svg">
<circle cx="21.32" cy="20.5427" r="20.2927" fill="white" stroke="#939094" stroke-width="0.5"/>
<path d="M11.4469 14.9601H14.6648M14.6648 14.9601C14.6648 16.7373 16.1055 18.178 17.8827 18.178C19.6599 18.178 21.1006 16.7373 21.1006 14.9601C21.1006 13.1829 19.6599 11.7422 17.8827 11.7422C16.1055 11.7422 14.6648 13.1829 14.6648 14.9601ZM11.4469 25.6864H17.8827M27.5364 25.6864H30.7543M27.5364 25.6864C27.5364 27.4636 26.0957 28.9043 24.3185 28.9043C22.5413 28.9043 21.1006 27.4636 21.1006 25.6864C21.1006 23.9092 22.5413 22.4686 24.3185 22.4686C26.0957 22.4686 27.5364 23.9092 27.5364 25.6864ZM24.3185 14.9601H30.7543" stroke="#1D192B" stroke-linecap="round"/>
</svg>
