<svg width="42" height="42" viewBox="0 0 42 42" fill="none" xmlns="http://www.w3.org/2000/svg">
<circle cx="20.5427" cy="20.5427" r="20.2927" fill="white" stroke="#5055AD" stroke-width="0.5"/>
<path d="M16.0327 13.8875V12.8149C16.0327 11.0377 17.4734 9.59698 19.2506 9.59698H21.3959C23.1731 9.59698 24.6138 11.0377 24.6138 12.8149V13.8875M9.59697 18.5507C9.59697 18.5507 12.9415 20.7785 18.1541 21.3003M31.0496 18.5507C31.0496 18.5507 27.7051 20.7785 22.4925 21.3003M13.8875 31.0496H26.7591C29.1286 31.0496 31.0496 29.1287 31.0496 26.7591V18.178C31.0496 15.8084 29.1286 13.8875 26.7591 13.8875H13.8875C11.5179 13.8875 9.59697 15.8084 9.59697 18.178V26.7591C9.59697 29.1287 11.5179 31.0496 13.8875 31.0496Z" stroke="#5055AD" stroke-linecap="round"/>
<path d="M22.4685 20.4949V21.5676C22.4685 21.5783 22.4685 21.5783 22.4685 21.589C22.4685 22.7582 22.4578 23.7128 20.3233 23.7128C18.1995 23.7128 18.178 22.7689 18.178 21.5997V20.4949C18.178 19.4223 18.178 19.4223 19.2506 19.4223H21.3959C22.4685 19.4223 22.4685 19.4223 22.4685 20.4949Z" stroke="#5055AD" stroke-miterlimit="10" stroke-linecap="round" stroke-linejoin="round"/>
</svg>
