<svg width="144" height="27" viewBox="0 0 144 27" fill="none" xmlns="http://www.w3.org/2000/svg">
<path d="M13.4912 26.9824C6.05086 26.9824 0 20.9316 0 13.4912C0 6.05086 6.05086 0 13.4912 0C20.9316 0 26.9824 6.05086 26.9824 13.4912C26.9824 20.9316 20.9316 26.9824 13.4912 26.9824ZM13.4912 2.06715C7.1871 2.0603 2.0603 7.1871 2.0603 13.4912C2.0603 19.7953 7.1871 24.9221 13.4912 24.9221C19.7953 24.9221 24.9221 19.7953 24.9221 13.4912C24.9221 7.1871 19.7885 2.0603 13.4912 2.0603V2.06715Z" fill="white"/>
<path d="M13.9083 7.2446L8.33848 10.4372C7.66074 10.8257 7.42674 11.6892 7.81583 12.3659L7.81925 12.3718C8.20834 13.0485 9.07317 13.2821 9.7509 12.8936L15.3207 9.70101C15.9985 9.31253 16.2325 8.44905 15.8434 7.77238L15.84 7.76643C15.4509 7.08975 14.586 6.85612 13.9083 7.2446Z" fill="white"/>
<path d="M17.9161 14.2153L12.3463 17.4079C11.6686 17.7964 11.4346 18.6599 11.8236 19.3366L11.8271 19.3425C12.2161 20.0192 13.081 20.2528 13.7587 19.8643L19.3285 16.6717C20.0063 16.2832 20.2403 15.4198 19.8512 14.7431L19.8478 14.7371C19.4587 14.0605 18.5939 13.8268 17.9161 14.2153Z" fill="white"/>
<path d="M12.8424 12.3479L8.43418 14.8747C7.75644 15.2632 7.52245 16.1267 7.91153 16.8034L7.91495 16.8093C8.30404 17.486 9.16887 17.7196 9.84661 17.3311L14.2548 14.8044C14.9325 14.4159 15.1665 13.5524 14.7775 12.8757L14.774 12.8698C14.385 12.1931 13.5201 11.9595 12.8424 12.3479Z" fill="#F4D316"/>
<path d="M37.536 17.6217V14.1637H43.5912V12.2466H37.536V8.98566H44.3615V7.03269H35.207V19.5747H44.6123V17.6217H37.536Z" fill="white"/>
<path d="M57.2051 7.03269V15.5254L50.29 7.03269H48.3731V19.5747H50.6841V11.082L57.5992 19.5747H59.5161V7.03269H57.2051Z" fill="white"/>
<path d="M67.9284 19.7539C71.3681 19.7539 72.9983 18.0338 72.9983 16.0271C72.9983 11.4224 65.5636 13.1604 65.5636 10.4907C65.5636 9.54109 66.3519 8.78857 68.2867 8.78857C69.3795 8.78857 70.6156 9.11108 71.7443 9.77401L72.4788 7.96438C71.386 7.24769 69.8095 6.85352 68.3046 6.85352C64.865 6.85352 63.2526 8.57356 63.2526 10.5982C63.2526 15.2567 70.7052 13.4829 70.7052 16.1884C70.7052 17.12 69.8811 17.8188 67.9284 17.8188C66.3877 17.8188 64.7933 17.2455 63.7901 16.4392L62.9839 18.2488C64.023 19.1447 65.9757 19.7539 67.9284 19.7539Z" fill="white"/>
<path d="M78.8011 17.6217V14.1637H84.8563V12.2466H78.8011V8.98566H85.6266V7.03269H76.4721V19.5747H85.8774V17.6217H78.8011Z" fill="white"/>
<path d="M103.361 19.5747L103.343 7.03269H101.426L96.5354 15.3462L91.555 7.03269H89.6382V19.5747H91.8596V11.3686L95.98 18.1413H97.0191L101.14 11.2611L101.157 19.5747H103.361Z" fill="white"/>
<path d="M116.799 13.0529C117.766 12.5333 118.411 11.5836 118.411 10.2936C118.411 8.30481 116.799 7.03269 113.789 7.03269H107.913V19.5747H114.147C117.372 19.5747 119.056 18.3205 119.056 16.1704C119.056 14.54 118.142 13.4829 116.799 13.0529ZM113.538 8.86024C115.15 8.86024 116.064 9.43359 116.064 10.5982C116.064 11.7449 115.15 12.3182 113.538 12.3182H110.242V8.86024H113.538ZM114.004 17.7471H110.242V14.1279H114.004C115.759 14.1279 116.709 14.6833 116.709 15.9375C116.709 17.1917 115.759 17.7471 114.004 17.7471Z" fill="white"/>
<path d="M122.706 19.5747H131.592V17.6038H125.035V7.03269H122.706V19.5747Z" fill="white"/>
<path d="M136.924 17.6217V14.1637H142.979V12.2466H136.924V8.98566H143.749V7.03269H134.595V19.5747H144V17.6217H136.924Z" fill="white"/>
</svg>
