<svg width="497" height="93" viewBox="0 0 497 93" fill="none" xmlns="http://www.w3.org/2000/svg">
<path d="M46.4816 92.9632C20.8471 92.9632 0 72.116 0 46.4816C0 20.8471 20.8471 0 46.4816 0C72.116 0 92.9632 20.8471 92.9632 46.4816C92.9632 72.116 72.116 92.9632 46.4816 92.9632ZM46.4816 7.12199C24.7619 7.0984 7.0984 24.7619 7.0984 46.4816C7.0984 68.2013 24.7619 85.8648 46.4816 85.8648C68.2013 85.8648 85.8647 68.2013 85.8647 46.4816C85.8647 24.7619 68.1777 7.0984 46.4816 7.0984V7.12199Z" fill="#2B2F86"/>
<path d="M47.9178 24.9617L28.7279 35.9613C26.3929 37.2998 25.5867 40.2747 26.9272 42.6061L26.939 42.6266C28.2795 44.9579 31.2592 45.7629 33.5942 44.4244L52.784 33.4248C55.119 32.0864 55.9252 29.1114 54.5847 26.7801L54.5729 26.7596C53.2324 24.4282 50.2528 23.6233 47.9178 24.9617Z" fill="#2B2F86"/>
<path d="M61.7264 48.9773L42.5365 59.9769C40.2015 61.3154 39.3953 64.2903 40.7358 66.6217L40.7476 66.6422C42.0881 68.9736 45.0678 69.7785 47.4028 68.4401L66.5926 57.4405C68.9276 56.102 69.7338 53.1271 68.3933 50.7957L68.3815 50.7752C67.041 48.4438 64.0614 47.6389 61.7264 48.9773Z" fill="#2B2F86"/>
<path d="M44.2476 42.5468L29.06 51.2523C26.7249 52.5908 25.9187 55.5657 27.2593 57.8971L27.2711 57.9176C28.6116 60.249 31.5912 61.0539 33.9262 59.7155L49.1139 51.0099C51.4489 49.6715 52.2551 46.6965 50.9146 44.3651L50.9028 44.3446C49.5623 42.0133 46.5827 41.2083 44.2476 42.5468Z" fill="#F4D316"/>
<path d="M130.219 60.4778V48.5667H151.079V41.9631H130.219V30.7309H153.733V24.0039H122.195V67.2048H154.597V60.4778H130.219Z" fill="#2B2F86"/>
<path d="M197.979 24.0039V53.2571L174.156 24.0039H167.553V67.2048H175.514V37.9516L199.337 67.2048H205.941V24.0039H197.979Z" fill="#2B2F86"/>
<path d="M234.922 67.8219C246.771 67.8219 252.388 61.8972 252.388 54.9851C252.388 39.1242 226.775 45.1106 226.775 35.915C226.775 32.6441 229.49 30.052 236.156 30.052C239.921 30.052 244.179 31.1629 248.067 33.4464L250.598 27.2131C246.833 24.7445 241.402 23.3867 236.218 23.3867C224.368 23.3867 218.813 29.3114 218.813 36.2853C218.813 52.3313 244.488 46.2215 244.488 55.5405C244.488 58.7497 241.649 61.1567 234.922 61.1567C229.614 61.1567 224.121 59.1818 220.665 56.4046L217.888 62.6378C221.467 65.7236 228.194 67.8219 234.922 67.8219Z" fill="#2B2F86"/>
<path d="M272.378 60.4778V48.5667H293.239V41.9631H272.378V30.7309H295.893V24.0039H264.355V67.2048H296.757V60.4778H272.378Z" fill="#2B2F86"/>
<path d="M356.988 67.2048L356.926 24.0039H350.322L333.474 52.6399L316.316 24.0039H309.712V67.2048H317.365V38.939L331.56 62.2675H335.14L349.335 38.5688L349.397 67.2048H356.988Z" fill="#2B2F86"/>
<path d="M403.281 44.7403C406.613 42.9506 408.835 39.6796 408.835 35.2361C408.835 28.3857 403.281 24.0039 392.912 24.0039H372.669V67.2048H394.147C405.256 67.2048 411.057 62.8847 411.057 55.4788C411.057 49.8627 407.91 46.2215 403.281 44.7403ZM392.048 30.2989C397.603 30.2989 400.75 32.2738 400.75 36.2853C400.75 40.2351 397.603 42.21 392.048 42.21H380.692V30.2989H392.048ZM393.653 60.9098H380.692V48.4432H393.653C399.701 48.4432 402.972 50.3564 402.972 54.6765C402.972 58.9966 399.701 60.9098 393.653 60.9098Z" fill="#2B2F86"/>
<path d="M423.632 67.2048H454.243V60.4161H431.655V24.0039H423.632V67.2048Z" fill="#2B2F86"/>
<path d="M472.612 60.4778V48.5667H493.473V41.9631H472.612V30.7309H496.127V24.0039H464.589V67.2048H496.991V60.4778H472.612Z" fill="#2B2F86"/>
</svg>
